<svg id="svg" version="1.1" xmlns="http://www.w3.org/2000/svg" xmlns:xlink="http://www.w3.org/1999/xlink" width="400" height="398.82926829268297" viewBox="0, 0, 400,398.82926829268297"><g id="svgg"><path id="path0" d="M196.589 33.573 C 190.725 34.271,197.115 30.872,123.752 72.310 C 51.328 113.218,56.236 110.094,52.502 117.659 C 49.759 123.216,49.928 117.529,50.043 200.086 L 50.146 274.537 51.007 276.790 C 53.436 283.152,57.850 288.492,63.024 291.327 C 64.527 292.150,71.024 295.809,77.463 299.457 C 106.136 315.705,114.657 318.584,129.101 316.905 C 145.578 314.990,155.379 306.871,159.520 291.707 L 160.585 287.805 160.693 213.854 C 160.773 159.193,160.686 139.685,160.358 139.067 C 159.544 137.536,158.413 137.366,149.037 137.366 L 140.062 137.366 139.104 138.324 L 138.146 139.282 138.146 209.276 C 138.146 258.248,138.018 279.967,137.720 281.587 C 135.531 293.465,123.020 298.322,109.961 292.362 C 105.691 290.414,73.990 272.363,73.073 271.358 L 72.195 270.396 72.195 199.055 L 72.195 127.715 72.998 126.694 C 73.440 126.133,77.347 123.668,81.681 121.217 C 189.126 60.457,198.428 55.280,200.195 55.251 C 202.760 55.209,326.730 125.115,327.875 127.248 C 328.554 128.516,328.585 131.623,328.585 198.738 C 328.585 275.176,328.721 270.641,326.386 272.276 C 323.716 274.144,202.203 342.431,200.940 342.773 C 199.308 343.215,201.554 344.380,180.229 332.027 C 172.145 327.344,165.172 323.512,164.732 323.512 C 164.293 323.512,161.424 324.795,158.357 326.362 C 155.290 327.929,151.112 329.785,149.073 330.487 C 139.983 333.613,139.872 334.006,146.927 338.134 C 169.765 351.498,189.135 362.449,191.205 363.167 C 196.766 365.097,203.617 365.112,209.058 363.208 C 210.995 362.529,313.542 305.111,338.253 290.869 C 342.294 288.540,346.727 283.300,348.769 278.439 C 350.502 274.313,350.481 275.380,350.359 197.463 L 350.244 123.122 349.171 120.441 C 347.079 115.217,343.757 110.869,339.795 108.169 C 337.534 106.628,213.830 36.808,211.353 35.674 C 207.248 33.796,201.540 32.984,196.589 33.573 M221.548 134.289 C 193.540 136.988,177.147 151.275,177.178 172.959 C 177.210 196.089,190.644 205.303,230.829 209.756 C 251.444 212.041,257.402 213.086,265.564 215.848 C 273.300 218.466,275.709 221.324,275.704 227.873 C 275.692 242.233,261.556 248.182,231.086 246.651 C 208.019 245.491,198.897 239.706,196.260 224.562 C 195.976 222.934,195.482 221.603,194.915 220.944 L 194.019 219.902 184.391 219.902 L 174.762 219.902 173.820 220.997 C 172.662 222.344,172.534 226.219,173.472 231.596 C 177.273 253.392,195.370 265.451,227.707 267.736 C 276.652 271.196,305.470 251.925,299.892 219.466 C 296.618 200.409,284.636 193.975,241.431 188.074 C 207.609 183.455,201.721 181.091,201.664 172.110 C 201.587 159.773,213.334 154.264,238.049 155.046 C 258.615 155.697,267.256 160.571,271.449 173.884 C 273.450 180.237,272.764 179.902,283.779 179.902 C 295.697 179.902,295.783 179.855,295.265 173.638 C 294.268 161.692,287.476 149.751,278.302 143.816 C 265.901 135.793,244.033 132.123,221.548 134.289 " stroke="none" fill="#fbfbfb" fill-rule="evenodd"></path><path id="path1" d="M174.049 0.645 C 173.512 0.737,169.912 1.333,166.049 1.971 C 57.980 19.807,-15.289 123.807,3.123 233.229 C 21.347 341.535,124.974 414.509,234.400 396.097 C 342.705 377.872,415.680 274.246,397.267 164.819 C 383.337 82.033,318.514 17.174,234.397 1.859 L 227.707 0.641 201.366 0.560 C 186.878 0.515,174.585 0.554,174.049 0.645 M208.842 34.456 C 210.802 35.129,220.667 40.472,237.525 49.991 C 353.592 115.526,340.624 108.002,344.168 111.869 C 347.051 115.016,349.431 119.606,350.257 123.613 C 350.766 126.080,350.828 135.978,350.738 200.296 L 350.634 274.146 349.589 277.009 C 345.762 287.484,350.756 284.130,277.457 325.456 C 243.012 344.876,213.748 361.343,212.427 362.048 C 205.952 365.504,196.394 365.832,189.659 362.830 C 186.702 361.512,143.644 336.559,142.546 335.527 C 140.645 333.741,141.585 332.905,147.963 330.704 C 150.183 329.938,154.786 327.908,158.192 326.194 C 165.654 322.438,163.204 321.881,178.604 330.837 C 198.751 342.553,198.899 342.634,200.213 342.634 C 201.120 342.634,215.171 334.891,253.794 313.107 C 282.588 296.867,310.624 281.055,316.098 277.970 C 321.571 274.884,326.532 271.837,327.122 271.198 L 328.195 270.036 328.193 199.116 C 328.191 132.340,328.151 128.130,327.510 127.086 C 326.458 125.372,202.202 55.415,200.210 55.415 C 199.040 55.415,187.693 61.670,137.148 90.180 C 66.224 130.183,73.188 126.153,72.626 127.516 C 71.745 129.655,72.229 270.179,73.122 271.165 C 74.487 272.674,109.210 291.975,112.778 293.209 C 123.005 296.745,132.093 293.835,136.091 285.746 L 137.561 282.772 137.664 211.218 C 137.778 131.587,137.530 138.204,140.433 137.338 C 141.329 137.071,144.999 136.962,150.374 137.043 L 158.895 137.171 160.033 138.445 L 161.171 139.720 161.171 211.236 C 161.171 257.596,161.030 283.871,160.772 285.932 C 158.245 306.083,144.995 317.382,123.902 317.373 C 110.916 317.368,103.517 314.521,76.098 298.980 C 56.961 288.134,55.838 287.252,52.449 280.390 C 49.332 274.080,49.535 280.087,49.652 197.553 L 49.756 123.902 50.667 121.366 C 52.873 115.226,56.751 110.275,61.782 107.173 C 65.481 104.892,184.834 37.545,188.048 35.926 C 194.051 32.900,202.559 32.299,208.842 34.456 M252.326 134.580 C 278.689 138.607,292.776 151.195,295.481 173.142 C 296.334 180.054,295.773 180.379,283.278 180.215 L 274.273 180.098 273.364 179.040 C 272.864 178.459,272.174 176.966,271.832 175.723 C 267.619 160.440,258.263 155.317,234.563 155.317 C 213.021 155.317,203.138 159.819,201.919 170.185 C 200.713 180.448,206.479 183.049,240.780 187.718 C 286.102 193.887,297.963 200.703,300.518 222.049 C 303.949 250.721,280.344 268.294,238.439 268.264 C 197.861 268.235,176.044 255.119,172.827 228.818 C 171.729 219.842,171.899 219.707,184.325 219.707 C 196.133 219.707,195.471 219.368,196.888 226.146 C 200.042 241.236,210.383 246.374,237.659 246.404 C 264.742 246.433,274.965 241.572,275.451 228.431 C 275.856 217.503,268.483 214.320,233.561 210.341 C 206.400 207.247,196.280 204.360,187.161 197.104 C 172.677 185.579,173.434 158.993,188.606 146.375 C 201.687 135.495,227.293 130.755,252.326 134.580 " stroke="none" fill="#8ccb4c" fill-rule="evenodd"></path><path id="path2" d="M227.610 133.732 C 227.985 133.831,228.600 133.831,228.976 133.732 C 229.351 133.634,229.044 133.554,228.293 133.554 C 227.541 133.554,227.234 133.634,227.610 133.732 M144.856 137.267 C 147.152 137.335,151.015 137.336,153.442 137.267 C 155.868 137.199,153.990 137.142,149.268 137.142 C 144.546 137.142,142.561 137.198,144.856 137.267 M283.707 148.098 C 284.435 148.849,285.119 149.463,285.226 149.463 C 285.334 149.463,284.826 148.849,284.098 148.098 C 283.369 147.346,282.686 146.732,282.579 146.732 C 282.471 146.732,282.979 147.346,283.707 148.098 M186.125 148.585 L 184.780 150.049 186.244 148.704 C 187.049 147.964,187.707 147.306,187.707 147.241 C 187.707 146.943,187.377 147.223,186.125 148.585 M279.534 180.194 C 282.068 180.262,286.107 180.262,288.510 180.194 C 290.912 180.125,288.839 180.069,283.902 180.070 C 278.966 180.070,277.000 180.126,279.534 180.194 M183.805 194.073 C 183.805 194.140,184.376 194.711,185.073 195.342 L 186.341 196.488 185.195 195.220 C 184.127 194.037,183.805 193.772,183.805 194.073 M300.586 224.976 C 300.591 225.834,300.670 226.139,300.764 225.654 C 300.857 225.169,300.854 224.466,300.756 224.093 C 300.658 223.720,300.582 224.117,300.586 224.976 M275.618 227.902 C 275.618 228.868,275.695 229.263,275.788 228.780 C 275.881 228.298,275.881 227.507,275.788 227.024 C 275.695 226.541,275.618 226.937,275.618 227.902 M300.586 228.098 C 300.591 228.956,300.670 229.261,300.764 228.776 C 300.857 228.291,300.854 227.588,300.756 227.215 C 300.658 226.842,300.582 227.239,300.586 228.098 M229.171 246.513 C 229.546 246.611,230.161 246.611,230.537 246.513 C 230.912 246.415,230.605 246.334,229.854 246.334 C 229.102 246.334,228.795 246.415,229.171 246.513 M233.268 268.373 C 233.751 268.466,234.541 268.466,235.024 268.373 C 235.507 268.280,235.112 268.204,234.146 268.204 C 233.180 268.204,232.785 268.280,233.268 268.373 M242.244 268.373 C 242.727 268.466,243.517 268.466,244.000 268.373 C 244.483 268.280,244.088 268.204,243.122 268.204 C 242.156 268.204,241.761 268.280,242.244 268.373 M56.959 286.927 C 57.916 287.946,58.750 288.780,58.813 288.780 C 59.106 288.780,58.796 288.430,57.073 286.813 L 55.220 285.073 56.959 286.927 M123.030 317.548 C 123.623 317.638,124.501 317.636,124.981 317.543 C 125.461 317.450,124.976 317.377,123.902 317.380 C 122.829 317.383,122.437 317.459,123.030 317.548 " stroke="none" fill="#b2da87" fill-rule="evenodd"></path><path id="path3" d="M49.752 198.829 C 49.752 238.537,49.798 254.723,49.854 234.798 C 49.910 214.874,49.910 182.386,49.854 162.603 C 49.798 142.820,49.752 159.122,49.752 198.829 M230.347 133.743 C 230.940 133.833,231.818 133.831,232.298 133.738 C 232.778 133.645,232.293 133.572,231.220 133.575 C 230.146 133.578,229.754 133.654,230.347 133.743 M238.732 133.739 C 239.215 133.832,240.005 133.832,240.488 133.739 C 240.971 133.646,240.576 133.570,239.610 133.570 C 238.644 133.570,238.249 133.646,238.732 133.739 M160.971 211.122 C 160.971 250.293,161.017 266.317,161.073 246.732 C 161.129 227.146,161.129 195.098,161.073 175.512 C 161.017 155.927,160.971 171.951,160.971 211.122 M231.512 155.216 C 232.961 155.291,235.332 155.291,236.780 155.216 C 238.229 155.141,237.044 155.080,234.146 155.080 C 231.249 155.080,230.063 155.141,231.512 155.216 M172.594 224.390 C 172.594 225.356,172.670 225.751,172.763 225.268 C 172.856 224.785,172.856 223.995,172.763 223.512 C 172.670 223.029,172.594 223.424,172.594 224.390 M237.181 268.384 C 238.099 268.466,239.504 268.465,240.303 268.381 C 241.102 268.297,240.351 268.230,238.634 268.231 C 236.917 268.233,236.263 268.301,237.181 268.384 " stroke="none" fill="#c4e4a4" fill-rule="evenodd"></path><path id="path4" d="M350.630 199.024 C 350.630 238.410,350.676 254.522,350.732 234.829 C 350.788 215.137,350.788 182.912,350.732 163.220 C 350.676 143.527,350.630 159.639,350.630 199.024 M328.386 198.829 C 328.386 237.678,328.432 253.513,328.488 234.018 C 328.544 214.523,328.544 182.737,328.488 163.384 C 328.432 144.030,328.386 159.980,328.386 198.829 M234.040 133.745 C 234.733 133.831,235.962 133.833,236.772 133.748 C 237.581 133.664,237.015 133.593,235.512 133.591 C 234.010 133.590,233.347 133.659,234.040 133.745 M137.947 210.146 C 137.947 248.780,137.993 264.643,138.049 245.397 C 138.105 226.150,138.105 194.541,138.049 175.153 C 137.993 155.765,137.947 171.512,137.947 210.146 M239.707 155.196 C 240.083 155.294,240.698 155.294,241.073 155.196 C 241.449 155.098,241.141 155.017,240.390 155.017 C 239.639 155.017,239.332 155.098,239.707 155.196 M264.195 162.073 C 264.195 162.140,264.766 162.711,265.463 163.342 L 266.732 164.488 265.586 163.220 C 264.517 162.037,264.195 161.772,264.195 162.073 M176.905 172.878 C 176.905 174.273,176.976 174.844,177.063 174.146 C 177.149 173.449,177.149 172.307,177.063 171.610 C 176.976 170.912,176.905 171.483,176.905 172.878 M190.932 219.987 C 191.525 220.077,192.403 220.075,192.883 219.982 C 193.363 219.889,192.878 219.816,191.805 219.819 C 190.732 219.822,190.339 219.898,190.932 219.987 M236.990 246.923 C 238.232 247.001,240.164 247.000,241.283 246.921 C 242.402 246.843,241.385 246.779,239.024 246.780 C 236.663 246.781,235.748 246.845,236.990 246.923 " stroke="none" fill="#cce4b4" fill-rule="evenodd"></path></g></svg>