<?xml version="1.0" standalone="no"?>
<!DOCTYPE svg PUBLIC "-//W3C//DTD SVG 20010904//EN"
 "http://www.w3.org/TR/2001/REC-SVG-20010904/DTD/svg10.dtd">
<svg version="1.0" xmlns="http://www.w3.org/2000/svg"
 width="512.000000pt" height="512.000000pt" viewBox="0 0 512.000000 512.000000"
 preserveAspectRatio="xMidYMid meet">

<g transform="translate(0.000000,512.000000) scale(0.100000,-0.100000)"
fill="#000000" stroke="none">
<path d="M1460 4474 c-244 -30 -434 -120 -609 -289 -436 -421 -491 -1130 -124
-1616 52 -69 1819 -1919 1833 -1919 14 0 1781 1850 1833 1918 262 348 316 829
139 1239 -114 265 -347 500 -593 596 -264 104 -542 96 -797 -23 -134 -63 -205
-120 -399 -318 l-182 -187 -188 192 c-196 199 -256 246 -396 314 -144 69 -375
110 -517 93z"/>
</g>
</svg>
